<svg width="1440" height="900" viewBox="0 0 1440 900" fill="none" xmlns="http://www.w3.org/2000/svg">
<g clip-path="url(#clip0)">
<rect width="1440" height="900" fill="#C4C4C4"/>
<g filter="url(#filter0_d)">
<path d="M0 -3.38635H1440V515C1440 515 1370 446.386 1231.5 430C1035.37 406.795 888.5 515 710.5 515C532.5 515 358.5 430 209 430C114.5 430 0 515 0 515V-3.38635Z" fill="#0077B6"/>
</g>
<path d="M257 604L265.981 631.639H295.042L271.531 648.721L280.511 676.361L257 659.279L233.489 676.361L242.469 648.721L218.958 631.639H248.019L257 604Z" fill="white" fill-opacity="0.33"/>
<path d="M1133.5 604L1145.29 637.513H1183.43L1152.57 658.225L1164.36 691.737L1133.5 671.025L1102.64 691.737L1114.43 658.225L1083.57 637.513H1121.71L1133.5 604Z" fill="#67B3F9" fill-opacity="0.45"/>
<path d="M279.469 609.802L271.091 637.63L294.969 654.197L265.914 654.829L257.536 682.657L247.957 655.219L218.902 655.851L242.036 638.262L232.457 610.825L256.334 627.391L279.469 609.802Z" fill="white" fill-opacity="0.33"/>
<path d="M1160.72 615.128L1150.22 647.63L1176.53 665.886L1143.73 667.717L1133.22 700.218L1123.45 668.848L1090.65 670.678L1117.41 649.46L1107.64 618.09L1133.96 636.346L1160.72 615.128Z" fill="#66ACFF" fill-opacity="0.45"/>
</g>
<defs>
<filter id="filter0_d" x="-4" y="-3.38635" width="1448" height="526.386" filterUnits="userSpaceOnUse" color-interpolation-filters="sRGB">
<feFlood flood-opacity="0" result="BackgroundImageFix"/>
<feColorMatrix in="SourceAlpha" type="matrix" values="0 0 0 0 0 0 0 0 0 0 0 0 0 0 0 0 0 0 127 0"/>
<feOffset dy="4"/>
<feGaussianBlur stdDeviation="2"/>
<feColorMatrix type="matrix" values="0 0 0 0 0 0 0 0 0 0 0 0 0 0 0 0 0 0 0.25 0"/>
<feBlend mode="normal" in2="BackgroundImageFix" result="effect1_dropShadow"/>
<feBlend mode="normal" in="SourceGraphic" in2="effect1_dropShadow" result="shape"/>
</filter>
<clipPath id="clip0">
<rect width="1440" height="900" fill="white"/>
</clipPath>
</defs>
</svg>
