<svg width="1440" height="940" viewBox="0 0 1440 940" fill="none" xmlns="http://www.w3.org/2000/svg">
<g clip-path="url(#clip0)">
<rect width="1440" height="940" fill="#C4C4C4"/>
<g style="mix-blend-mode:multiply">
<path d="M0 0H1440V645C1440 645 1215 349.584 1006.83 521.5C883.94 622.992 741.5 645 551.579 534.853C361.658 424.707 472.5 828.678 153.5 534.853C68.9353 456.963 0 645 0 645V0Z" fill="#206CDF"/>
</g>
<g style="mix-blend-mode:multiply">
<path d="M0 0H1440V492C1440 492 1215 266.66 1006.83 397.795C883.94 475.213 741.5 492 551.579 407.981C361.658 323.962 472.5 632.108 153.5 407.981C68.9353 348.567 0 492 0 492V0Z" fill="#206CDF"/>
</g>
</g>
<defs>
<clipPath id="clip0">
<rect width="1440" height="940" fill="white"/>
</clipPath>
</defs>
</svg>
