<svg width="1440" height="900" viewBox="0 0 1440 900" fill="none" xmlns="http://www.w3.org/2000/svg">
<g clip-path="url(#clip0)">
<rect width="1440" height="900" fill="#C4C4C4"/>
<g filter="url(#filter0_d)">
<path d="M0 -3.38635H1440V515C1440 515 1370 446.386 1231.5 430C1035.37 406.795 888.5 515 710.5 515C532.5 515 358.5 430 209 430C114.5 430 0 515 0 515V-3.38635Z" fill="#0077B6"/>
</g>
<path d="M257 604L265.981 631.639H295.042L271.531 648.721L280.511 676.361L257 659.279L233.489 676.361L242.469 648.721L218.958 631.639H248.019L257 604Z" fill="white" fill-opacity="0.33"/>
<path d="M1133.5 604L1145.29 637.513H1183.43L1152.57 658.225L1164.36 691.737L1133.5 671.025L1102.64 691.737L1114.43 658.225L1083.57 637.513H1121.71L1133.5 604Z" fill="#67B3F9" fill-opacity="0.45"/>
<path d="M279.469 609.802L271.091 637.63L294.969 654.197L265.914 654.829L257.536 682.657L247.957 655.219L218.902 655.851L242.036 638.262L232.457 610.825L256.334 627.391L279.469 609.802Z" fill="white" fill-opacity="0.33"/>
<path d="M1160.72 615.128L1150.22 647.63L1176.53 665.886L1143.73 667.717L1133.22 700.218L1123.45 668.848L1090.65 670.678L1117.41 649.46L1107.64 618.09L1133.96 636.346L1160.72 615.128Z" fill="#66ACFF" fill-opacity="0.45"/>
<ellipse cx="720" cy="263" rx="321" ry="75" fill="#C4C4C4"/>
<path d="M495.25 284.025L499.15 283.05V241.45L495.25 240.475V239.5H513.45C520.643 239.5 525.8 240.692 528.92 243.075C532.04 245.415 533.6 248.882 533.6 253.475C533.6 258.068 532.04 261.557 528.92 263.94C525.8 266.28 520.643 267.45 513.45 267.45H509.875V283.05L513.775 284.025V285H495.25V284.025ZM513.45 265.825C516.18 265.825 518.368 264.785 520.015 262.705C521.705 260.625 522.55 257.548 522.55 253.475C522.55 249.445 521.705 246.39 520.015 244.31C518.368 242.187 516.18 241.125 513.45 241.125H509.875V265.825H513.45ZM539.112 285V284.025L543.012 283.05V241.45L539.112 240.475V239.5H557.637V240.475L553.737 241.45V261.6H567.712V241.45L563.812 240.475V239.5H582.337V240.475L578.437 241.45V283.05L582.337 284.025V285H563.812V284.025L567.712 283.05V263.225H553.737V283.05L557.637 284.025V285H539.112ZM598.239 284.025L602.139 283.05V268.1L588.814 241.45L585.564 240.475V239.5H593.689C595.943 239.5 597.741 239.977 599.084 240.93C600.471 241.883 601.598 243.248 602.464 245.025L612.084 264.2L621.964 242.425L617.089 240.475V239.5H629.439V240.475L624.239 242.425L612.864 267.45V283.05L616.764 284.025V285H598.239V284.025ZM645.999 285.975C642.923 285.975 640.041 285.282 637.354 283.895C636.141 283.288 635.123 282.573 634.299 281.75C633.693 282.747 632.934 283.635 632.024 284.415C631.244 284.978 630.811 285.282 630.724 285.325H629.099V272.975H631.699C632.349 275.098 633.259 277.005 634.429 278.695C637.073 282.465 640.496 284.35 644.699 284.35C647.169 284.35 649.141 283.613 650.614 282.14C652.088 280.667 652.824 278.695 652.824 276.225C652.824 274.795 652.391 273.517 651.524 272.39C650.701 271.263 649.661 270.267 648.404 269.4C647.148 268.533 645.393 267.45 643.139 266.15C640.279 264.547 637.961 263.095 636.184 261.795C634.408 260.495 632.891 258.87 631.634 256.92C630.378 254.927 629.749 252.587 629.749 249.9C629.749 247.777 630.334 245.87 631.504 244.18C632.718 242.447 634.516 241.082 636.899 240.085C639.283 239.045 642.208 238.525 645.674 238.525C648.188 238.525 650.701 239.24 653.214 240.67C654.168 241.19 655.121 241.883 656.074 242.75C656.811 241.623 657.569 240.735 658.349 240.085C659.129 239.522 659.563 239.218 659.649 239.175H661.274V251.525H658.674C658.111 249.445 657.266 247.56 656.139 245.87C655.099 244.223 653.799 242.858 652.239 241.775C650.723 240.692 648.968 240.15 646.974 240.15C645.284 240.15 643.833 240.822 642.619 242.165C641.406 243.508 640.799 245.22 640.799 247.3C640.799 248.903 641.254 250.355 642.164 251.655C643.118 252.912 644.266 254.017 645.609 254.97C646.996 255.923 648.859 257.072 651.199 258.415C653.929 259.975 656.139 261.362 657.829 262.575C659.519 263.788 660.949 265.305 662.119 267.125C663.289 268.902 663.874 270.96 663.874 273.3C663.874 275.64 663.203 277.785 661.859 279.735C660.516 281.642 658.501 283.158 655.814 284.285C653.128 285.412 649.856 285.975 645.999 285.975ZM668.731 285V284.025L672.631 283.05V241.45L668.731 240.475V239.5H687.256V240.475L683.356 241.45V283.05L687.256 284.025V285H668.731ZM715.516 285.975C708.583 285.975 703.166 283.917 699.266 279.8C695.366 275.683 693.416 269.833 693.416 262.25C693.416 257.267 694.261 252.998 695.951 249.445C697.685 245.848 700.09 243.14 703.166 241.32C706.286 239.457 709.883 238.525 713.956 238.525C716.426 238.525 718.918 239.24 721.431 240.67C722.385 241.19 723.338 241.883 724.291 242.75C725.028 241.623 725.786 240.735 726.566 240.085C727.346 239.522 727.78 239.218 727.866 239.175H729.491V251.525H726.891C726.328 249.445 725.483 247.56 724.356 245.87C723.316 244.223 722.016 242.858 720.456 241.775C718.94 240.692 717.185 240.15 715.191 240.15C712.201 240.15 709.71 241.883 707.716 245.35C705.766 248.817 704.791 254.45 704.791 262.25C704.791 270.18 705.853 275.857 707.976 279.28C710.143 282.66 713.09 284.35 716.816 284.35C718.853 284.35 720.781 283.787 722.601 282.66C724.465 281.49 725.96 279.952 727.086 278.045C728.256 276.138 728.841 274.123 728.841 272H730.466C730.466 274.47 729.795 276.788 728.451 278.955C727.151 281.078 725.353 282.79 723.056 284.09C720.803 285.347 718.29 285.975 715.516 285.975ZM751.942 285.975C748.865 285.975 745.983 285.282 743.297 283.895C742.083 283.288 741.065 282.573 740.242 281.75C739.635 282.747 738.877 283.635 737.967 284.415C737.187 284.978 736.753 285.282 736.667 285.325H735.042V272.975H737.642C738.292 275.098 739.202 277.005 740.372 278.695C743.015 282.465 746.438 284.35 750.642 284.35C753.112 284.35 755.083 283.613 756.557 282.14C758.03 280.667 758.767 278.695 758.767 276.225C758.767 274.795 758.333 273.517 757.467 272.39C756.643 271.263 755.603 270.267 754.347 269.4C753.09 268.533 751.335 267.45 749.082 266.15C746.222 264.547 743.903 263.095 742.127 261.795C740.35 260.495 738.833 258.87 737.577 256.92C736.32 254.927 735.692 252.587 735.692 249.9C735.692 247.777 736.277 245.87 737.447 244.18C738.66 242.447 740.458 241.082 742.842 240.085C745.225 239.045 748.15 238.525 751.617 238.525C754.13 238.525 756.643 239.24 759.157 240.67C760.11 241.19 761.063 241.883 762.017 242.75C762.753 241.623 763.512 240.735 764.292 240.085C765.072 239.522 765.505 239.218 765.592 239.175H767.217V251.525H764.617C764.053 249.445 763.208 247.56 762.082 245.87C761.042 244.223 759.742 242.858 758.182 241.775C756.665 240.692 754.91 240.15 752.917 240.15C751.227 240.15 749.775 240.822 748.562 242.165C747.348 243.508 746.742 245.22 746.742 247.3C746.742 248.903 747.197 250.355 748.107 251.655C749.06 252.912 750.208 254.017 751.552 254.97C752.938 255.923 754.802 257.072 757.142 258.415C759.872 259.975 762.082 261.362 763.772 262.575C765.462 263.788 766.892 265.305 768.062 267.125C769.232 268.902 769.817 270.96 769.817 273.3C769.817 275.64 769.145 277.785 767.802 279.735C766.458 281.642 764.443 283.158 761.757 284.285C759.07 285.412 755.798 285.975 751.942 285.975ZM774.674 284.025L778.574 283.05V241.45L774.674 240.475V239.5H792.874C800.067 239.5 805.224 240.692 808.344 243.075C811.464 245.415 813.024 248.882 813.024 253.475C813.024 258.068 811.464 261.557 808.344 263.94C805.224 266.28 800.067 267.45 792.874 267.45H789.299V283.05L793.199 284.025V285H774.674V284.025ZM792.874 265.825C795.604 265.825 797.792 264.785 799.439 262.705C801.129 260.625 801.974 257.548 801.974 253.475C801.974 249.445 801.129 246.39 799.439 244.31C797.792 242.187 795.604 241.125 792.874 241.125H789.299V265.825H792.874ZM818.536 284.025L822.436 283.05V241.45L818.536 240.475V239.5H835.761C843.128 239.5 848.436 240.627 851.686 242.88C854.936 245.09 856.561 248.188 856.561 252.175C856.561 254.862 855.846 257.05 854.416 258.74C852.986 260.387 851.144 261.622 848.891 262.445C846.508 263.355 843.973 263.832 841.286 263.875V264.2C842.889 264.287 844.298 264.525 845.511 264.915C848.544 265.868 850.603 267.58 851.686 270.05L857.536 283.05L860.786 284.025V285H851.686C848.133 285 845.533 283.158 843.886 279.475L837.386 264.85H833.161V283.05L837.711 284.025V285H818.536V284.025ZM835.761 263.225C838.794 263.225 841.178 262.272 842.911 260.365C844.644 258.458 845.511 255.728 845.511 252.175C845.511 248.622 844.644 245.892 842.911 243.985C841.178 242.078 838.794 241.125 835.761 241.125H833.161V263.225H835.761ZM884.214 285.975C879.967 285.975 876.241 285.065 873.034 283.245C869.871 281.382 867.422 278.673 865.689 275.12C863.956 271.567 863.089 267.277 863.089 262.25C863.089 257.223 863.956 252.933 865.689 249.38C867.422 245.827 869.871 243.14 873.034 241.32C876.241 239.457 879.967 238.525 884.214 238.525C888.461 238.525 892.166 239.457 895.329 241.32C898.536 243.14 901.006 245.827 902.739 249.38C904.472 252.933 905.339 257.223 905.339 262.25C905.339 267.277 904.472 271.567 902.739 275.12C901.006 278.673 898.536 281.382 895.329 283.245C892.166 285.065 888.461 285.975 884.214 285.975ZM884.214 284.675C885.904 284.675 887.464 283.96 888.894 282.53C890.367 281.1 891.581 278.717 892.534 275.38C893.487 272.043 893.964 267.667 893.964 262.25C893.964 256.833 893.487 252.457 892.534 249.12C891.581 245.783 890.367 243.4 888.894 241.97C887.464 240.54 885.904 239.825 884.214 239.825C882.524 239.825 880.942 240.54 879.469 241.97C878.039 243.4 876.847 245.783 875.894 249.12C874.941 252.457 874.464 256.833 874.464 262.25C874.464 267.667 874.941 272.043 875.894 275.38C876.847 278.717 878.039 281.1 879.469 282.53C880.942 283.96 882.524 284.675 884.214 284.675ZM927.454 285.975C924.378 285.975 921.496 285.282 918.809 283.895C917.596 283.288 916.578 282.573 915.754 281.75C915.148 282.747 914.389 283.635 913.479 284.415C912.699 284.978 912.266 285.282 912.179 285.325H910.554V272.975H913.154C913.804 275.098 914.714 277.005 915.884 278.695C918.528 282.465 921.951 284.35 926.154 284.35C928.624 284.35 930.596 283.613 932.069 282.14C933.543 280.667 934.279 278.695 934.279 276.225C934.279 274.795 933.846 273.517 932.979 272.39C932.156 271.263 931.116 270.267 929.859 269.4C928.603 268.533 926.848 267.45 924.594 266.15C921.734 264.547 919.416 263.095 917.639 261.795C915.863 260.495 914.346 258.87 913.089 256.92C911.833 254.927 911.204 252.587 911.204 249.9C911.204 247.777 911.789 245.87 912.959 244.18C914.173 242.447 915.971 241.082 918.354 240.085C920.738 239.045 923.663 238.525 927.129 238.525C929.643 238.525 932.156 239.24 934.669 240.67C935.623 241.19 936.576 241.883 937.529 242.75C938.266 241.623 939.024 240.735 939.804 240.085C940.584 239.522 941.018 239.218 941.104 239.175H942.729V251.525H940.129C939.566 249.445 938.721 247.56 937.594 245.87C936.554 244.223 935.254 242.858 933.694 241.775C932.178 240.692 930.423 240.15 928.429 240.15C926.739 240.15 925.288 240.822 924.074 242.165C922.861 243.508 922.254 245.22 922.254 247.3C922.254 248.903 922.709 250.355 923.619 251.655C924.573 252.912 925.721 254.017 927.064 254.97C928.451 255.923 930.314 257.072 932.654 258.415C935.384 259.975 937.594 261.362 939.284 262.575C940.974 263.788 942.404 265.305 943.574 267.125C944.744 268.902 945.329 270.96 945.329 273.3C945.329 275.64 944.658 277.785 943.314 279.735C941.971 281.642 939.956 283.158 937.269 284.285C934.583 285.412 931.311 285.975 927.454 285.975Z" fill="#0077B6"/>
</g>
<defs>
<filter id="filter0_d" x="-4" y="-3.38635" width="1448" height="526.386" filterUnits="userSpaceOnUse" color-interpolation-filters="sRGB">
<feFlood flood-opacity="0" result="BackgroundImageFix"/>
<feColorMatrix in="SourceAlpha" type="matrix" values="0 0 0 0 0 0 0 0 0 0 0 0 0 0 0 0 0 0 127 0"/>
<feOffset dy="4"/>
<feGaussianBlur stdDeviation="2"/>
<feColorMatrix type="matrix" values="0 0 0 0 0 0 0 0 0 0 0 0 0 0 0 0 0 0 0.25 0"/>
<feBlend mode="normal" in2="BackgroundImageFix" result="effect1_dropShadow"/>
<feBlend mode="normal" in="SourceGraphic" in2="effect1_dropShadow" result="shape"/>
</filter>
<clipPath id="clip0">
<rect width="1440" height="900" fill="white"/>
</clipPath>
</defs>
</svg>
