<svg width="1440" height="900" viewBox="0 0 1440 900" fill="none" xmlns="http://www.w3.org/2000/svg">
<g clip-path="url(#clip0)">
<rect width="1440" height="900" fill="#C4C4C4"/>
<g filter="url(#filter0_d)">
<path d="M0 0H1440V824C1440 824 1215 446.601 1006.83 666.226C883.94 795.885 777 802.316 605.5 635.9C434 469.484 375.5 720.267 227.5 780.919C116.309 826.486 0 635.9 0 635.9V0Z" fill="#3075DD"/>
</g>
<path d="M812.812 518L829.651 569.824H884.141L840.057 601.853L856.896 653.676L812.812 621.647L768.728 653.676L785.567 601.853L741.483 569.824H795.973L812.812 518Z" fill="#F89292" fill-opacity="0.45"/>
<path d="M483.812 621L500.651 672.824H555.141L511.057 704.853L527.896 756.676L483.812 724.647L439.728 756.676L456.567 704.853L412.483 672.824H466.973L483.812 621Z" fill="#FEF7F7"/>
<path d="M1142.81 621L1159.65 672.824H1214.14L1170.06 704.853L1186.9 756.676L1142.81 724.647L1098.73 756.676L1115.57 704.853L1071.48 672.824H1125.97L1142.81 621Z" fill="#67B3F9"/>
<path d="M856.129 529.754L840.421 581.932L885.191 612.995L830.713 614.179L815.005 666.357L797.044 614.912L742.566 616.096L785.943 583.117L767.982 531.671L812.752 562.734L856.129 529.754Z" fill="#F89595" fill-opacity="0.45"/>
<path d="M527.129 632.754L511.421 684.932L556.191 715.995L501.713 717.179L486.005 769.357L468.044 717.912L413.566 719.096L456.943 686.117L438.982 634.671L483.752 665.734L527.129 632.754Z" fill="#FEF7F7"/>
<path d="M1186.13 632.754L1170.42 684.932L1215.19 715.995L1160.71 717.179L1145.01 769.357L1127.04 717.912L1072.57 719.096L1115.94 686.117L1097.98 634.671L1142.75 665.734L1186.13 632.754Z" fill="#66ACFF"/>
<ellipse cx="1121.5" cy="291.5" rx="170.5" ry="49.5" fill="#C4C4C4" fill-opacity="0.45"/>
<ellipse cx="196.5" cy="603.5" rx="170.5" ry="49.5" fill="#C4C4C4" fill-opacity="0.45"/>
<ellipse cx="1121.5" cy="292" rx="126.5" ry="23" fill="#3075DD"/>
<ellipse cx="196.5" cy="604" rx="126.5" ry="23" fill="#3075DD"/>
<circle cx="1125" cy="295" r="75" fill="#C4C4C4" fill-opacity="0.65"/>
<circle cx="200" cy="607" r="75" fill="#C4C4C4" fill-opacity="0.45"/>
<rect x="150" y="192" width="94" height="220" fill="#2DA5BF"/>
<path d="M198.5 112L264.751 193H132.249L198.5 112Z" fill="#2DA5BF"/>
<path d="M279.317 411.294L167.214 432.854L213.713 317.871L279.317 411.294Z" fill="#2DA5BF"/>
<path d="M118.617 405.428L174.304 312.83L222.137 436.396L118.617 405.428Z" fill="#2DA5BF"/>
</g>
<defs>
<filter id="filter0_d" x="-4" y="0" width="1448" height="832" filterUnits="userSpaceOnUse" color-interpolation-filters="sRGB">
<feFlood flood-opacity="0" result="BackgroundImageFix"/>
<feColorMatrix in="SourceAlpha" type="matrix" values="0 0 0 0 0 0 0 0 0 0 0 0 0 0 0 0 0 0 127 0"/>
<feOffset dy="4"/>
<feGaussianBlur stdDeviation="2"/>
<feColorMatrix type="matrix" values="0 0 0 0 0 0 0 0 0 0 0 0 0 0 0 0 0 0 0.25 0"/>
<feBlend mode="normal" in2="BackgroundImageFix" result="effect1_dropShadow"/>
<feBlend mode="normal" in="SourceGraphic" in2="effect1_dropShadow" result="shape"/>
</filter>
<clipPath id="clip0">
<rect width="1440" height="900" fill="white"/>
</clipPath>
</defs>
</svg>
