<svg width="768" height="1024" viewBox="0 0 768 1024" fill="none" xmlns="http://www.w3.org/2000/svg">
<g clip-path="url(#clip0)">
<rect width="768" height="1024" fill="#C4C4C4"/>
<g filter="url(#filter0_b)">
<path d="M0 0H770V207V306.5C770 306.5 682.5 373.5 607 383C531.5 392.5 506.5 392.5 390.5 392.5C274.5 392.5 251.93 393.929 147.5 383C61.5 374 0 306.5 0 306.5V0Z" fill="#0077B6"/>
</g>
<ellipse cx="384.5" cy="192" rx="272.5" ry="65" fill="#C4C4C4"/>
<path d="M158.25 215.025L162.15 214.05V172.45L158.25 171.475V170.5H176.45C183.643 170.5 188.8 171.692 191.92 174.075C195.04 176.415 196.6 179.882 196.6 184.475C196.6 189.068 195.04 192.557 191.92 194.94C188.8 197.28 183.643 198.45 176.45 198.45H172.875V214.05L176.775 215.025V216H158.25V215.025ZM176.45 196.825C179.18 196.825 181.368 195.785 183.015 193.705C184.705 191.625 185.55 188.548 185.55 184.475C185.55 180.445 184.705 177.39 183.015 175.31C181.368 173.187 179.18 172.125 176.45 172.125H172.875V196.825H176.45ZM202.112 216V215.025L206.012 214.05V172.45L202.112 171.475V170.5H220.637V171.475L216.737 172.45V192.6H230.712V172.45L226.812 171.475V170.5H245.337V171.475L241.437 172.45V214.05L245.337 215.025V216H226.812V215.025L230.712 214.05V194.225H216.737V214.05L220.637 215.025V216H202.112ZM261.239 215.025L265.139 214.05V199.1L251.814 172.45L248.564 171.475V170.5H256.689C258.943 170.5 260.741 170.977 262.084 171.93C263.471 172.883 264.598 174.248 265.464 176.025L275.084 195.2L284.964 173.425L280.089 171.475V170.5H292.439V171.475L287.239 173.425L275.864 198.45V214.05L279.764 215.025V216H261.239V215.025ZM308.999 216.975C305.923 216.975 303.041 216.282 300.354 214.895C299.141 214.288 298.123 213.573 297.299 212.75C296.693 213.747 295.934 214.635 295.024 215.415C294.244 215.978 293.811 216.282 293.724 216.325H292.099V203.975H294.699C295.349 206.098 296.259 208.005 297.429 209.695C300.073 213.465 303.496 215.35 307.699 215.35C310.169 215.35 312.141 214.613 313.614 213.14C315.088 211.667 315.824 209.695 315.824 207.225C315.824 205.795 315.391 204.517 314.524 203.39C313.701 202.263 312.661 201.267 311.404 200.4C310.148 199.533 308.393 198.45 306.139 197.15C303.279 195.547 300.961 194.095 299.184 192.795C297.408 191.495 295.891 189.87 294.634 187.92C293.378 185.927 292.749 183.587 292.749 180.9C292.749 178.777 293.334 176.87 294.504 175.18C295.718 173.447 297.516 172.082 299.899 171.085C302.283 170.045 305.208 169.525 308.674 169.525C311.188 169.525 313.701 170.24 316.214 171.67C317.168 172.19 318.121 172.883 319.074 173.75C319.811 172.623 320.569 171.735 321.349 171.085C322.129 170.522 322.563 170.218 322.649 170.175H324.274V182.525H321.674C321.111 180.445 320.266 178.56 319.139 176.87C318.099 175.223 316.799 173.858 315.239 172.775C313.723 171.692 311.968 171.15 309.974 171.15C308.284 171.15 306.833 171.822 305.619 173.165C304.406 174.508 303.799 176.22 303.799 178.3C303.799 179.903 304.254 181.355 305.164 182.655C306.118 183.912 307.266 185.017 308.609 185.97C309.996 186.923 311.859 188.072 314.199 189.415C316.929 190.975 319.139 192.362 320.829 193.575C322.519 194.788 323.949 196.305 325.119 198.125C326.289 199.902 326.874 201.96 326.874 204.3C326.874 206.64 326.203 208.785 324.859 210.735C323.516 212.642 321.501 214.158 318.814 215.285C316.128 216.412 312.856 216.975 308.999 216.975ZM331.731 216V215.025L335.631 214.05V172.45L331.731 171.475V170.5H350.256V171.475L346.356 172.45V214.05L350.256 215.025V216H331.731ZM378.516 216.975C371.583 216.975 366.166 214.917 362.266 210.8C358.366 206.683 356.416 200.833 356.416 193.25C356.416 188.267 357.261 183.998 358.951 180.445C360.685 176.848 363.09 174.14 366.166 172.32C369.286 170.457 372.883 169.525 376.956 169.525C379.426 169.525 381.918 170.24 384.431 171.67C385.385 172.19 386.338 172.883 387.291 173.75C388.028 172.623 388.786 171.735 389.566 171.085C390.346 170.522 390.78 170.218 390.866 170.175H392.491V182.525H389.891C389.328 180.445 388.483 178.56 387.356 176.87C386.316 175.223 385.016 173.858 383.456 172.775C381.94 171.692 380.185 171.15 378.191 171.15C375.201 171.15 372.71 172.883 370.716 176.35C368.766 179.817 367.791 185.45 367.791 193.25C367.791 201.18 368.853 206.857 370.976 210.28C373.143 213.66 376.09 215.35 379.816 215.35C381.853 215.35 383.781 214.787 385.601 213.66C387.465 212.49 388.96 210.952 390.086 209.045C391.256 207.138 391.841 205.123 391.841 203H393.466C393.466 205.47 392.795 207.788 391.451 209.955C390.151 212.078 388.353 213.79 386.056 215.09C383.803 216.347 381.29 216.975 378.516 216.975ZM414.942 216.975C411.865 216.975 408.983 216.282 406.297 214.895C405.083 214.288 404.065 213.573 403.242 212.75C402.635 213.747 401.877 214.635 400.967 215.415C400.187 215.978 399.753 216.282 399.667 216.325H398.042V203.975H400.642C401.292 206.098 402.202 208.005 403.372 209.695C406.015 213.465 409.438 215.35 413.642 215.35C416.112 215.35 418.083 214.613 419.557 213.14C421.03 211.667 421.767 209.695 421.767 207.225C421.767 205.795 421.333 204.517 420.467 203.39C419.643 202.263 418.603 201.267 417.347 200.4C416.09 199.533 414.335 198.45 412.082 197.15C409.222 195.547 406.903 194.095 405.127 192.795C403.35 191.495 401.833 189.87 400.577 187.92C399.32 185.927 398.692 183.587 398.692 180.9C398.692 178.777 399.277 176.87 400.447 175.18C401.66 173.447 403.458 172.082 405.842 171.085C408.225 170.045 411.15 169.525 414.617 169.525C417.13 169.525 419.643 170.24 422.157 171.67C423.11 172.19 424.063 172.883 425.017 173.75C425.753 172.623 426.512 171.735 427.292 171.085C428.072 170.522 428.505 170.218 428.592 170.175H430.217V182.525H427.617C427.053 180.445 426.208 178.56 425.082 176.87C424.042 175.223 422.742 173.858 421.182 172.775C419.665 171.692 417.91 171.15 415.917 171.15C414.227 171.15 412.775 171.822 411.562 173.165C410.348 174.508 409.742 176.22 409.742 178.3C409.742 179.903 410.197 181.355 411.107 182.655C412.06 183.912 413.208 185.017 414.552 185.97C415.938 186.923 417.802 188.072 420.142 189.415C422.872 190.975 425.082 192.362 426.772 193.575C428.462 194.788 429.892 196.305 431.062 198.125C432.232 199.902 432.817 201.96 432.817 204.3C432.817 206.64 432.145 208.785 430.802 210.735C429.458 212.642 427.443 214.158 424.757 215.285C422.07 216.412 418.798 216.975 414.942 216.975ZM437.674 215.025L441.574 214.05V172.45L437.674 171.475V170.5H455.874C463.067 170.5 468.224 171.692 471.344 174.075C474.464 176.415 476.024 179.882 476.024 184.475C476.024 189.068 474.464 192.557 471.344 194.94C468.224 197.28 463.067 198.45 455.874 198.45H452.299V214.05L456.199 215.025V216H437.674V215.025ZM455.874 196.825C458.604 196.825 460.792 195.785 462.439 193.705C464.129 191.625 464.974 188.548 464.974 184.475C464.974 180.445 464.129 177.39 462.439 175.31C460.792 173.187 458.604 172.125 455.874 172.125H452.299V196.825H455.874ZM481.536 215.025L485.436 214.05V172.45L481.536 171.475V170.5H498.761C506.128 170.5 511.436 171.627 514.686 173.88C517.936 176.09 519.561 179.188 519.561 183.175C519.561 185.862 518.846 188.05 517.416 189.74C515.986 191.387 514.144 192.622 511.891 193.445C509.508 194.355 506.973 194.832 504.286 194.875V195.2C505.889 195.287 507.298 195.525 508.511 195.915C511.544 196.868 513.603 198.58 514.686 201.05L520.536 214.05L523.786 215.025V216H514.686C511.133 216 508.533 214.158 506.886 210.475L500.386 195.85H496.161V214.05L500.711 215.025V216H481.536V215.025ZM498.761 194.225C501.794 194.225 504.178 193.272 505.911 191.365C507.644 189.458 508.511 186.728 508.511 183.175C508.511 179.622 507.644 176.892 505.911 174.985C504.178 173.078 501.794 172.125 498.761 172.125H496.161V194.225H498.761ZM547.214 216.975C542.967 216.975 539.241 216.065 536.034 214.245C532.871 212.382 530.422 209.673 528.689 206.12C526.956 202.567 526.089 198.277 526.089 193.25C526.089 188.223 526.956 183.933 528.689 180.38C530.422 176.827 532.871 174.14 536.034 172.32C539.241 170.457 542.967 169.525 547.214 169.525C551.461 169.525 555.166 170.457 558.329 172.32C561.536 174.14 564.006 176.827 565.739 180.38C567.472 183.933 568.339 188.223 568.339 193.25C568.339 198.277 567.472 202.567 565.739 206.12C564.006 209.673 561.536 212.382 558.329 214.245C555.166 216.065 551.461 216.975 547.214 216.975ZM547.214 215.675C548.904 215.675 550.464 214.96 551.894 213.53C553.367 212.1 554.581 209.717 555.534 206.38C556.487 203.043 556.964 198.667 556.964 193.25C556.964 187.833 556.487 183.457 555.534 180.12C554.581 176.783 553.367 174.4 551.894 172.97C550.464 171.54 548.904 170.825 547.214 170.825C545.524 170.825 543.942 171.54 542.469 172.97C541.039 174.4 539.847 176.783 538.894 180.12C537.941 183.457 537.464 187.833 537.464 193.25C537.464 198.667 537.941 203.043 538.894 206.38C539.847 209.717 541.039 212.1 542.469 213.53C543.942 214.96 545.524 215.675 547.214 215.675ZM590.454 216.975C587.378 216.975 584.496 216.282 581.809 214.895C580.596 214.288 579.578 213.573 578.754 212.75C578.148 213.747 577.389 214.635 576.479 215.415C575.699 215.978 575.266 216.282 575.179 216.325H573.554V203.975H576.154C576.804 206.098 577.714 208.005 578.884 209.695C581.528 213.465 584.951 215.35 589.154 215.35C591.624 215.35 593.596 214.613 595.069 213.14C596.543 211.667 597.279 209.695 597.279 207.225C597.279 205.795 596.846 204.517 595.979 203.39C595.156 202.263 594.116 201.267 592.859 200.4C591.603 199.533 589.848 198.45 587.594 197.15C584.734 195.547 582.416 194.095 580.639 192.795C578.863 191.495 577.346 189.87 576.089 187.92C574.833 185.927 574.204 183.587 574.204 180.9C574.204 178.777 574.789 176.87 575.959 175.18C577.173 173.447 578.971 172.082 581.354 171.085C583.738 170.045 586.663 169.525 590.129 169.525C592.643 169.525 595.156 170.24 597.669 171.67C598.623 172.19 599.576 172.883 600.529 173.75C601.266 172.623 602.024 171.735 602.804 171.085C603.584 170.522 604.018 170.218 604.104 170.175H605.729V182.525H603.129C602.566 180.445 601.721 178.56 600.594 176.87C599.554 175.223 598.254 173.858 596.694 172.775C595.178 171.692 593.423 171.15 591.429 171.15C589.739 171.15 588.288 171.822 587.074 173.165C585.861 174.508 585.254 176.22 585.254 178.3C585.254 179.903 585.709 181.355 586.619 182.655C587.573 183.912 588.721 185.017 590.064 185.97C591.451 186.923 593.314 188.072 595.654 189.415C598.384 190.975 600.594 192.362 602.284 193.575C603.974 194.788 605.404 196.305 606.574 198.125C607.744 199.902 608.329 201.96 608.329 204.3C608.329 206.64 607.658 208.785 606.314 210.735C604.971 212.642 602.956 214.158 600.269 215.285C597.583 216.412 594.311 216.975 590.454 216.975Z" fill="#0077B6"/>
</g>
<defs>
<filter id="filter0_b" x="-4" y="-4" width="778" height="400.561" filterUnits="userSpaceOnUse" color-interpolation-filters="sRGB">
<feFlood flood-opacity="0" result="BackgroundImageFix"/>
<feGaussianBlur in="BackgroundImage" stdDeviation="2"/>
<feComposite in2="SourceAlpha" operator="in" result="effect1_backgroundBlur"/>
<feBlend mode="normal" in="SourceGraphic" in2="effect1_backgroundBlur" result="shape"/>
</filter>
<clipPath id="clip0">
<rect width="768" height="1024" fill="white"/>
</clipPath>
</defs>
</svg>
