<svg width="410" height="882" viewBox="0 0 410 882" fill="none" xmlns="http://www.w3.org/2000/svg">
<g clip-path="url(#clip0)">
<rect width="410" height="882" fill="white"/>
<rect x="-1" width="412" height="882" fill="#C4C4C4"/>
<path d="M55.1426 582V581.15C56.0996 581.15 56.8613 581.092 57.4277 580.975C57.9941 580.838 58.4238 580.613 58.7168 580.301C59.0098 579.969 59.1953 579.52 59.2734 578.953C59.3516 578.367 59.3906 577.625 59.3906 576.727V557.332C59.3906 556.414 59.3516 555.672 59.2734 555.105C59.1953 554.52 59.0098 554.061 58.7168 553.729C58.4238 553.396 57.9941 553.172 57.4277 553.055C56.8613 552.918 56.0996 552.85 55.1426 552.85V552.059H67.9746V552.85C67.0371 552.85 66.2852 552.918 65.7188 553.055C65.1523 553.172 64.7129 553.396 64.4004 553.729C64.1074 554.061 63.9121 554.52 63.8145 555.105C63.7168 555.672 63.668 556.414 63.668 557.332V576.727C63.668 577.625 63.707 578.367 63.7852 578.953C63.8828 579.52 64.0781 579.969 64.3711 580.301C64.6641 580.613 65.0938 580.838 65.6602 580.975C66.2266 581.092 66.998 581.15 67.9746 581.15V582H55.1426ZM101.109 566.473C100.289 566.473 99.6543 566.57 99.2051 566.766C98.7559 566.961 98.4238 567.244 98.209 567.615C97.9941 567.986 97.8574 568.445 97.7988 568.992C97.7598 569.539 97.7402 570.154 97.7402 570.838V580.008C96.1387 580.945 94.4395 581.629 92.6426 582.059C90.8652 582.508 89.0391 582.732 87.1641 582.732C84.8789 582.732 82.7305 582.391 80.7188 581.707C78.707 581.023 76.9492 580.037 75.4453 578.748C73.9609 577.439 72.7793 575.838 71.9004 573.943C71.041 572.049 70.6113 569.891 70.6113 567.469C70.6113 565.242 71.0117 563.152 71.8125 561.199C72.6328 559.246 73.7559 557.547 75.1816 556.102C76.6074 554.637 78.2871 553.494 80.2207 552.674C82.1738 551.834 84.2734 551.414 86.5195 551.414C87.6523 551.414 88.6973 551.512 89.6543 551.707C90.6309 551.902 91.4805 552.117 92.2031 552.352C92.9453 552.566 93.541 552.771 93.9902 552.967C94.459 553.162 94.7715 553.26 94.9277 553.26C95.123 553.26 95.2891 553.191 95.4258 553.055C95.582 552.898 95.6992 552.723 95.7773 552.527C95.875 552.332 95.9434 552.137 95.9824 551.941C96.0215 551.727 96.0508 551.551 96.0703 551.414H96.832L97.623 560.818H96.832C96.4414 559.627 95.9531 558.543 95.3672 557.566C94.7812 556.59 94.0879 555.76 93.2871 555.076C92.4863 554.373 91.5586 553.836 90.5039 553.465C89.4492 553.094 88.2578 552.908 86.9297 552.908C84.9766 552.908 83.2969 553.289 81.8906 554.051C80.4844 554.812 79.3223 555.828 78.4043 557.098C77.4863 558.367 76.8027 559.822 76.3535 561.463C75.9238 563.104 75.709 564.793 75.709 566.531C75.709 568.27 75.9336 570.008 76.3828 571.746C76.8516 573.484 77.5547 575.057 78.4922 576.463C79.4492 577.85 80.6504 578.982 82.0957 579.861C83.541 580.721 85.2598 581.15 87.252 581.15C88.3262 581.15 89.3809 581.023 90.416 580.77C91.4707 580.496 92.4668 580.086 93.4043 579.539V570.838C93.4043 570.018 93.3652 569.334 93.2871 568.787C93.209 568.24 93.0332 567.801 92.7598 567.469C92.4863 567.137 92.0957 566.902 91.5879 566.766C91.0801 566.609 90.3867 566.512 89.5078 566.473V565.682H101.109V566.473ZM130.26 574.969C128.912 577.41 127.213 579.314 125.162 580.682C123.131 582.049 120.709 582.732 117.896 582.732C115.67 582.732 113.658 582.342 111.861 581.561C110.064 580.779 108.531 579.705 107.262 578.338C105.992 576.971 105.016 575.359 104.332 573.504C103.648 571.648 103.307 569.637 103.307 567.469C103.307 565.242 103.668 563.162 104.391 561.229C105.133 559.275 106.168 557.576 107.496 556.131C108.844 554.666 110.445 553.514 112.301 552.674C114.176 551.834 116.256 551.414 118.541 551.414C119.303 551.414 120.006 551.473 120.65 551.59C121.314 551.688 121.949 551.824 122.555 552C123.18 552.176 123.785 552.391 124.371 552.645C124.977 552.879 125.621 553.143 126.305 553.436C126.598 553.436 126.852 553.367 127.066 553.23C127.281 553.094 127.457 552.928 127.594 552.732C127.73 552.537 127.838 552.322 127.916 552.088C128.014 551.854 128.092 551.629 128.15 551.414H128.941L129.586 561.551H128.941C128.57 560.301 128.092 559.158 127.506 558.123C126.939 557.068 126.246 556.16 125.426 555.398C124.625 554.637 123.678 554.041 122.584 553.611C121.51 553.182 120.289 552.967 118.922 552.967C117.555 552.967 116.344 553.172 115.289 553.582C114.254 553.973 113.336 554.52 112.535 555.223C111.754 555.926 111.09 556.746 110.543 557.684C110.016 558.621 109.586 559.637 109.254 560.73C108.941 561.805 108.707 562.928 108.551 564.1C108.414 565.252 108.346 566.395 108.346 567.527C108.346 569.324 108.561 571.023 108.99 572.625C109.42 574.207 110.084 575.604 110.982 576.814C111.9 578.025 113.062 578.982 114.469 579.686C115.895 580.389 117.594 580.74 119.566 580.74C120.816 580.74 121.91 580.594 122.848 580.301C123.805 580.008 124.664 579.598 125.426 579.07C126.207 578.523 126.92 577.869 127.564 577.107C128.229 576.326 128.902 575.457 129.586 574.5L130.26 574.969ZM154.605 574.324C154.605 575.633 154.342 576.805 153.814 577.84C153.287 578.875 152.584 579.754 151.705 580.477C150.846 581.199 149.85 581.756 148.717 582.146C147.584 582.537 146.412 582.732 145.201 582.732C144.4 582.732 143.6 582.635 142.799 582.439C141.998 582.264 141.236 582.068 140.514 581.854C139.811 581.639 139.166 581.443 138.58 581.268C137.994 581.072 137.516 580.975 137.145 580.975C136.91 580.975 136.705 581.033 136.529 581.15C136.373 581.248 136.236 581.385 136.119 581.561C136.021 581.736 135.943 581.922 135.885 582.117C135.826 582.332 135.787 582.537 135.768 582.732H134.977V572.391H135.768C135.924 573.66 136.227 574.822 136.676 575.877C137.125 576.932 137.721 577.84 138.463 578.602C139.205 579.344 140.094 579.93 141.129 580.359C142.184 580.77 143.375 580.975 144.703 580.975C145.426 580.975 146.139 580.877 146.842 580.682C147.564 580.467 148.199 580.154 148.746 579.744C149.312 579.334 149.771 578.826 150.123 578.221C150.475 577.596 150.65 576.873 150.65 576.053C150.65 575.193 150.416 574.422 149.947 573.738C149.498 573.035 148.902 572.391 148.16 571.805C147.418 571.199 146.568 570.633 145.611 570.105C144.654 569.559 143.678 569.012 142.682 568.465C141.705 567.918 140.738 567.342 139.781 566.736C138.824 566.131 137.975 565.467 137.232 564.744C136.49 564.002 135.885 563.191 135.416 562.312C134.967 561.414 134.742 560.398 134.742 559.266C134.742 558.035 134.977 556.941 135.445 555.984C135.934 555.008 136.578 554.188 137.379 553.523C138.18 552.84 139.098 552.322 140.133 551.971C141.188 551.6 142.291 551.414 143.443 551.414C144.107 551.414 144.781 551.502 145.465 551.678C146.148 551.854 146.793 552.049 147.398 552.264C148.023 552.459 148.59 552.645 149.098 552.82C149.605 552.996 150.025 553.084 150.357 553.084C150.592 553.084 150.787 553.025 150.943 552.908C151.1 552.791 151.236 552.654 151.354 552.498C151.471 552.322 151.559 552.137 151.617 551.941C151.695 551.746 151.754 551.57 151.793 551.414H152.643V561.727H151.793C151.695 560.555 151.441 559.451 151.031 558.416C150.621 557.361 150.064 556.453 149.361 555.691C148.678 554.91 147.838 554.295 146.842 553.846C145.865 553.377 144.752 553.143 143.502 553.143C142.838 553.143 142.193 553.25 141.568 553.465C140.943 553.68 140.377 553.992 139.869 554.402C139.381 554.793 138.98 555.271 138.668 555.838C138.375 556.385 138.229 557.01 138.229 557.713C138.229 558.533 138.463 559.275 138.932 559.939C139.4 560.604 140.016 561.219 140.777 561.785C141.559 562.352 142.438 562.898 143.414 563.426C144.391 563.934 145.387 564.461 146.402 565.008C147.438 565.535 148.443 566.102 149.42 566.707C150.396 567.312 151.266 567.986 152.027 568.729C152.809 569.471 153.434 570.301 153.902 571.219C154.371 572.117 154.605 573.152 154.605 574.324ZM181.002 582H157.975V581.15C158.912 581.15 159.654 581.092 160.201 580.975C160.768 580.857 161.197 580.643 161.49 580.33C161.783 579.998 161.979 579.549 162.076 578.982C162.174 578.396 162.223 577.645 162.223 576.727V557.215C162.223 556.277 162.184 555.525 162.105 554.959C162.027 554.393 161.842 553.953 161.549 553.641C161.256 553.328 160.826 553.123 160.26 553.025C159.693 552.908 158.932 552.85 157.975 552.85V552.059H181.002L181.354 558.592H180.533C180.279 557.635 180.035 556.844 179.801 556.219C179.586 555.574 179.283 555.066 178.893 554.695C178.521 554.324 178.004 554.061 177.34 553.904C176.695 553.748 175.816 553.67 174.703 553.67H166.441V565.506H173.033C173.951 565.506 174.684 565.447 175.23 565.33C175.797 565.193 176.246 564.969 176.578 564.656C176.93 564.324 177.184 563.885 177.34 563.338C177.516 562.771 177.662 562.049 177.779 561.17H178.6V571.629H177.779C177.662 570.75 177.516 570.027 177.34 569.461C177.184 568.895 176.939 568.445 176.607 568.113C176.275 567.762 175.826 567.518 175.26 567.381C174.713 567.244 173.971 567.176 173.033 567.176H166.441V577.02C166.441 577.605 166.451 578.113 166.471 578.543C166.51 578.953 166.607 579.295 166.764 579.568C166.939 579.842 167.193 580.047 167.525 580.184C167.857 580.32 168.336 580.389 168.961 580.389H174C175.309 580.389 176.383 580.281 177.223 580.066C178.062 579.852 178.785 579.51 179.391 579.041C180.016 578.572 180.572 577.967 181.061 577.225C181.549 576.463 182.096 575.555 182.701 574.5H183.639L181.002 582Z" fill="#FEF8F8"/>
<path d="M229.922 683.917C229.922 685.599 229.618 687.068 229.009 688.321C228.4 689.556 227.621 690.586 226.672 691.409C225.723 692.215 224.676 692.815 223.53 693.208C222.384 693.62 221.283 693.826 220.227 693.826C218.472 693.826 216.763 693.423 215.098 692.618C213.433 691.83 211.938 690.595 210.613 688.912C209.306 687.211 208.25 685.035 207.444 682.386C206.656 679.718 206.262 676.522 206.262 672.798C206.262 670.31 206.45 668.09 206.826 666.138C207.22 664.187 207.739 662.468 208.384 660.982C209.046 659.496 209.816 658.234 210.693 657.195C211.589 656.139 212.546 655.289 213.567 654.644C214.587 653.982 215.644 653.498 216.736 653.194C217.828 652.889 218.902 652.737 219.958 652.737C221.552 652.737 222.922 652.961 224.067 653.409C225.231 653.856 226.189 654.429 226.941 655.127C227.693 655.826 228.248 656.604 228.606 657.464C228.964 658.323 229.143 659.165 229.143 659.988C229.143 660.812 229.027 661.555 228.794 662.217C228.579 662.862 228.284 663.408 227.908 663.855C227.532 664.303 227.084 664.643 226.565 664.876C226.046 665.109 225.491 665.225 224.9 665.225C224.399 665.225 223.897 665.136 223.396 664.957C222.895 664.778 222.447 664.518 222.053 664.178C221.659 663.838 221.337 663.426 221.086 662.942C220.854 662.441 220.737 661.877 220.737 661.25C220.755 660.892 220.8 660.516 220.872 660.123C220.943 659.782 221.051 659.415 221.194 659.021C221.355 658.61 221.588 658.198 221.892 657.786C221.624 657.535 221.337 657.339 221.033 657.195C220.728 657.034 220.451 656.918 220.2 656.846C219.896 656.775 219.591 656.721 219.287 656.685C218.589 656.685 217.971 656.9 217.434 657.33C216.897 657.759 216.431 658.359 216.038 659.129C215.644 659.881 215.312 660.776 215.044 661.814C214.775 662.853 214.561 663.981 214.399 665.198C214.256 666.416 214.149 667.696 214.077 669.039C214.006 670.363 213.97 671.706 213.97 673.067C213.97 675.108 214.077 677.122 214.292 679.109C214.525 681.079 214.892 682.851 215.393 684.427C215.912 685.984 216.593 687.247 217.434 688.213C218.293 689.162 219.341 689.637 220.576 689.637C221.328 689.583 222.008 689.368 222.617 688.992C222.886 688.831 223.145 688.634 223.396 688.401C223.647 688.151 223.87 687.846 224.067 687.488C224.282 687.112 224.452 686.683 224.578 686.199C224.721 685.716 224.81 685.152 224.846 684.507C224.542 684.633 224.193 684.695 223.799 684.695C223.369 684.695 222.948 684.606 222.537 684.427C222.143 684.23 221.785 683.97 221.462 683.648C221.14 683.308 220.881 682.914 220.684 682.466C220.487 682.001 220.388 681.491 220.388 680.936C220.388 680.094 220.576 679.405 220.952 678.868C221.346 678.313 221.794 677.874 222.295 677.552C222.796 677.229 223.289 677.006 223.772 676.88C224.255 676.737 224.596 676.666 224.792 676.666C224.936 676.666 225.16 676.692 225.464 676.746C225.768 676.782 226.108 676.88 226.484 677.042C226.878 677.203 227.272 677.444 227.666 677.767C228.078 678.071 228.445 678.492 228.767 679.029C229.107 679.566 229.385 680.237 229.6 681.043C229.814 681.831 229.922 682.789 229.922 683.917ZM255.703 681.392C255.614 683.147 255.3 684.668 254.763 685.958C254.226 687.229 253.537 688.321 252.695 689.234C251.872 690.129 250.932 690.863 249.875 691.436C248.837 691.991 247.781 692.43 246.707 692.752C245.65 693.074 244.603 693.289 243.564 693.396C242.544 693.522 241.64 693.584 240.852 693.584C239.33 693.584 237.898 693.54 236.555 693.45C235.23 693.361 233.932 693.208 232.661 692.994C232.769 691.866 232.858 690.63 232.93 689.288C233.001 687.927 233.064 686.548 233.118 685.152C233.171 683.737 233.207 682.35 233.225 680.989C233.243 679.629 233.261 678.375 233.279 677.229C233.297 676.066 233.306 675.063 233.306 674.222C233.306 673.362 233.306 672.745 233.306 672.369C233.288 669.808 233.252 667.338 233.198 664.957C233.18 663.936 233.153 662.898 233.118 661.841C233.1 660.767 233.073 659.729 233.037 658.726C233.019 657.706 232.992 656.748 232.957 655.853C232.921 654.939 232.876 654.134 232.822 653.436C233.324 653.364 233.87 653.31 234.46 653.274C235.069 653.239 235.669 653.212 236.26 653.194C236.868 653.158 237.459 653.14 238.032 653.14C238.623 653.122 239.16 653.113 239.644 653.113C241.81 653.113 243.851 653.274 245.767 653.597C247.7 653.919 249.383 654.474 250.815 655.262C252.266 656.032 253.403 657.061 254.226 658.35C255.068 659.621 255.488 661.215 255.488 663.13C255.399 664.294 255.112 665.386 254.629 666.407C254.414 666.854 254.146 667.311 253.823 667.776C253.519 668.224 253.134 668.654 252.668 669.065C252.203 669.477 251.657 669.862 251.03 670.22C250.404 670.578 249.688 670.874 248.882 671.106C250.046 671.411 251.021 671.867 251.809 672.476C252.597 673.085 253.241 673.765 253.743 674.517C254.262 675.251 254.647 676.012 254.897 676.8C255.166 677.588 255.354 678.313 255.461 678.975C255.587 679.638 255.658 680.193 255.676 680.64C255.694 681.088 255.703 681.338 255.703 681.392ZM248.157 681.661C248.103 680.157 247.852 678.805 247.405 677.605C247.208 677.104 246.957 676.612 246.653 676.128C246.366 675.627 246.008 675.188 245.579 674.812C245.149 674.419 244.639 674.105 244.048 673.873C243.457 673.64 242.777 673.523 242.007 673.523C241.81 673.523 241.604 673.532 241.389 673.55C241.174 673.568 240.942 673.595 240.691 673.631L240.476 688.804C241.013 688.912 241.541 688.965 242.061 688.965C242.812 688.965 243.466 688.867 244.021 688.67C244.594 688.455 245.095 688.178 245.525 687.837C245.955 687.479 246.313 687.085 246.599 686.656C246.903 686.226 247.154 685.778 247.351 685.313C247.817 684.239 248.085 683.021 248.157 681.661ZM248.049 662.969C247.978 661.967 247.727 661.071 247.297 660.284C247.118 659.944 246.886 659.612 246.599 659.29C246.331 658.968 245.99 658.681 245.579 658.431C245.185 658.18 244.71 657.974 244.155 657.813C243.618 657.652 242.992 657.571 242.275 657.571C241.702 657.571 241.067 657.625 240.369 657.732L240.691 669.119H241.282C242.392 669.119 243.332 668.976 244.102 668.689C244.871 668.385 245.507 668.018 246.008 667.588C246.51 667.141 246.895 666.657 247.163 666.138C247.45 665.619 247.655 665.136 247.781 664.688C247.906 664.222 247.978 663.838 247.996 663.533C248.031 663.211 248.049 663.023 248.049 662.969ZM279.98 682.762C279.801 684.785 279.336 686.468 278.584 687.811C277.85 689.135 276.946 690.201 275.872 691.006C274.797 691.794 273.607 692.349 272.3 692.671C271.011 692.994 269.722 693.155 268.433 693.155C267.09 693.155 265.792 692.967 264.539 692.591C263.303 692.233 262.211 691.687 261.262 690.953C260.313 690.219 259.552 689.297 258.979 688.187C258.424 687.076 258.147 685.778 258.147 684.292C258.147 683.147 258.317 682.189 258.657 681.419C259.015 680.649 259.454 680.031 259.973 679.566C260.492 679.1 261.047 678.778 261.638 678.599C262.229 678.402 262.775 678.304 263.276 678.304C263.796 678.304 264.333 678.384 264.888 678.545C265.443 678.707 265.953 678.975 266.418 679.351C266.884 679.727 267.26 680.237 267.546 680.882C267.851 681.508 268.003 682.296 268.003 683.245C268.003 683.263 267.985 683.433 267.949 683.755C267.931 684.06 267.833 684.418 267.654 684.83C267.475 685.223 267.197 685.617 266.821 686.011C266.463 686.387 265.935 686.656 265.237 686.817C265.738 687.444 266.32 687.918 266.982 688.24C267.663 688.545 268.236 688.697 268.701 688.697C269.167 688.697 269.695 688.616 270.286 688.455C270.894 688.294 271.458 688.025 271.978 687.649C272.515 687.256 272.962 686.745 273.32 686.119C273.696 685.474 273.884 684.668 273.884 683.702C273.884 682.574 273.687 681.571 273.293 680.694C272.917 679.817 272.425 679.047 271.816 678.384C271.226 677.704 270.554 677.113 269.802 676.612C269.068 676.093 268.352 675.627 267.654 675.215C267.188 674.947 266.633 674.633 265.989 674.275C265.344 673.899 264.673 673.461 263.975 672.959C263.276 672.44 262.587 671.858 261.907 671.214C261.226 670.551 260.609 669.808 260.054 668.985C259.517 668.143 259.078 667.212 258.738 666.192C258.416 665.171 258.254 664.043 258.254 662.808C258.254 660.964 258.577 659.353 259.221 657.974C259.866 656.578 260.698 655.414 261.719 654.483C262.757 653.552 263.93 652.854 265.237 652.388C266.544 651.923 267.869 651.69 269.211 651.69C270.554 651.69 271.834 651.878 273.052 652.254C274.269 652.612 275.334 653.14 276.248 653.838C277.179 654.519 277.913 655.342 278.45 656.309C279.005 657.258 279.282 658.323 279.282 659.505C279.282 660.704 279.085 661.653 278.691 662.352C278.298 663.05 277.823 663.578 277.268 663.936C276.731 664.294 276.176 664.527 275.603 664.634C275.048 664.724 274.6 664.769 274.26 664.769C273.831 664.769 273.383 664.688 272.917 664.527C272.452 664.366 272.022 664.124 271.628 663.802C271.252 663.479 270.939 663.086 270.688 662.62C270.438 662.155 270.312 661.609 270.312 660.982C270.33 660.588 270.375 660.194 270.447 659.8C270.518 659.46 270.626 659.093 270.769 658.699C270.912 658.305 271.127 657.929 271.414 657.571C271.127 657.321 270.85 657.124 270.581 656.98C270.312 656.837 270.062 656.73 269.829 656.658C269.561 656.587 269.301 656.542 269.05 656.524C268.549 656.524 268.039 656.613 267.52 656.792C267.018 656.972 266.553 657.24 266.123 657.598C265.711 657.956 265.371 658.413 265.103 658.968C264.834 659.505 264.7 660.14 264.7 660.875C264.7 661.734 264.834 662.513 265.103 663.211C265.371 663.891 265.792 664.554 266.365 665.198C266.938 665.843 267.663 666.496 268.54 667.159C269.435 667.821 270.5 668.546 271.736 669.334C273.186 670.247 274.43 671.16 275.469 672.073C276.525 672.986 277.384 673.926 278.047 674.893C278.727 675.86 279.229 676.88 279.551 677.955C279.873 679.011 280.034 680.157 280.034 681.392C280.034 681.607 280.034 681.831 280.034 682.063C280.034 682.278 280.016 682.511 279.98 682.762ZM302.109 692.618C300.659 692.582 299.307 692.555 298.054 692.537C296.819 692.537 295.646 692.537 294.536 692.537C292.37 692.537 290.553 692.555 289.084 692.591C287.634 692.645 286.453 692.689 285.54 692.725C284.465 692.779 283.615 692.833 282.988 692.886C283.114 691.687 283.221 690.478 283.311 689.261C283.418 688.043 283.507 686.844 283.579 685.662C283.651 684.48 283.713 683.344 283.767 682.251C283.821 681.159 283.866 680.13 283.901 679.163C283.973 676.907 284.018 674.75 284.036 672.691C284.018 670.542 283.973 668.34 283.901 666.084C283.866 665.118 283.821 664.106 283.767 663.05C283.713 661.976 283.651 660.883 283.579 659.773C283.507 658.663 283.418 657.553 283.311 656.443C283.221 655.315 283.114 654.223 282.988 653.167C285.226 653.257 287.222 653.328 288.977 653.382C290.75 653.418 292.325 653.436 293.704 653.436C295.064 653.436 296.237 653.427 297.222 653.409C298.206 653.373 299.012 653.337 299.639 653.301C300.373 653.265 300.981 653.221 301.465 653.167C301.465 653.149 301.465 653.31 301.465 653.65C301.465 653.991 301.474 654.438 301.492 654.993C301.51 655.548 301.536 656.175 301.572 656.873C301.626 657.571 301.698 658.278 301.787 658.995C299.71 658.798 297.893 658.672 296.335 658.619C294.778 658.547 293.444 658.511 292.334 658.511C291.868 658.511 291.457 658.511 291.099 658.511C290.758 658.511 290.436 658.529 290.132 658.565C290.096 660.552 290.069 662.423 290.051 664.178C290.033 665.914 290.024 667.562 290.024 669.119C291.278 669.083 292.397 669.039 293.381 668.985C294.366 668.913 295.208 668.833 295.906 668.743C296.711 668.654 297.428 668.555 298.054 668.448C298.036 668.573 298.027 668.716 298.027 668.877C298.009 669.021 298 669.191 298 669.388C298 669.585 298 669.808 298 670.059C298 670.632 298.018 671.321 298.054 672.127C298.09 672.915 298.162 673.765 298.269 674.678C296.335 674.428 294.67 674.275 293.274 674.222C291.877 674.15 290.794 674.114 290.024 674.114C290.024 675.976 290.033 677.641 290.051 679.109C290.069 680.56 290.087 681.84 290.105 682.95C290.141 684.06 290.168 685.009 290.186 685.796C290.221 686.584 290.257 687.238 290.293 687.757C292.119 687.721 293.748 687.632 295.181 687.488C296.613 687.345 297.821 687.202 298.806 687.059C299.791 686.897 300.543 686.754 301.062 686.629C301.581 686.504 301.841 686.423 301.841 686.387C301.823 686.477 301.814 686.575 301.814 686.683C301.796 686.772 301.787 686.889 301.787 687.032C301.787 687.175 301.787 687.345 301.787 687.542C301.787 688.043 301.805 688.715 301.841 689.556C301.877 690.398 301.966 691.418 302.109 692.618Z" fill="#FEF8F8"/>
<path d="M252.482 487.363C252.482 487.031 252.541 486.699 252.658 486.367C252.775 486.016 252.941 485.703 253.156 485.43C253.371 485.137 253.635 484.902 253.947 484.727C254.279 484.551 254.65 484.463 255.061 484.463C255.1 484.463 255.246 484.482 255.5 484.521C255.773 484.541 256.076 484.57 256.408 484.609C256.76 484.648 257.111 484.688 257.463 484.727C257.814 484.746 258.107 484.766 258.342 484.785V482.266C258.342 481.172 258.342 479.902 258.342 478.457C258.361 477.012 258.381 475.479 258.4 473.857C258.42 472.236 258.439 470.576 258.459 468.877C258.498 467.158 258.537 465.488 258.576 463.867C258.615 462.246 258.664 460.723 258.723 459.297C258.801 457.871 258.879 456.621 258.957 455.547H256.701C256.252 455.547 255.803 455.537 255.354 455.518C254.904 455.479 254.484 455.381 254.094 455.225C253.723 455.049 253.42 454.805 253.186 454.492C252.951 454.16 252.834 453.701 252.834 453.115C252.834 452.568 252.902 452.109 253.039 451.738C253.195 451.348 253.449 451.035 253.801 450.801C254.152 450.547 254.621 450.361 255.207 450.244C255.793 450.127 256.525 450.068 257.404 450.068C257.814 450.068 258.273 450.068 258.781 450.068C259.309 450.049 259.846 450.039 260.393 450.039C260.959 450.02 261.516 450.01 262.062 450.01C262.609 449.99 263.107 449.98 263.557 449.98C263.83 449.98 264.182 449.98 264.611 449.98C265.061 449.961 265.695 449.951 266.516 449.951C267.18 449.951 267.805 449.873 268.391 449.717C268.996 449.541 269.602 449.453 270.207 449.453C270.52 449.453 270.842 449.561 271.174 449.775C271.525 449.971 271.838 450.215 272.111 450.508C272.404 450.801 272.639 451.104 272.814 451.416C273.01 451.729 273.107 451.982 273.107 452.178C273.107 452.783 272.961 453.301 272.668 453.73C272.395 454.16 272.043 454.521 271.613 454.814C271.184 455.088 270.725 455.293 270.236 455.43C269.748 455.547 269.299 455.605 268.889 455.605C268.752 455.605 268.596 455.576 268.42 455.518C268.244 455.439 268.068 455.371 267.893 455.312C267.717 455.234 267.551 455.166 267.395 455.107C267.258 455.029 267.16 454.99 267.102 454.99L264.172 455.166C264.094 455.791 264.025 456.68 263.967 457.832C263.908 458.984 263.85 460.293 263.791 461.758C263.752 463.223 263.723 464.805 263.703 466.504C263.684 468.184 263.674 469.873 263.674 471.572C263.674 472.607 263.684 473.682 263.703 474.795C263.723 475.908 263.762 477.031 263.82 478.164C263.879 479.277 263.947 480.4 264.025 481.533C264.123 482.666 264.24 483.76 264.377 484.814C264.963 484.873 265.52 484.902 266.047 484.902C266.574 484.883 267.043 484.863 267.453 484.844C267.863 484.824 268.205 484.814 268.479 484.814C268.752 484.795 268.918 484.805 268.977 484.844C269.582 485.234 270.021 485.674 270.295 486.162C270.568 486.65 270.705 487.148 270.705 487.656C270.705 488.008 270.607 488.34 270.412 488.652C270.217 488.945 269.963 489.199 269.65 489.414C269.357 489.609 269.016 489.766 268.625 489.883C268.254 490 267.893 490.059 267.541 490.059H257.521C257.17 490.059 256.711 490.02 256.145 489.941C255.578 489.863 255.021 489.727 254.475 489.531C253.947 489.316 253.479 489.033 253.068 488.682C252.678 488.33 252.482 487.891 252.482 487.363ZM280.402 487.422C280.402 486.973 280.441 486.572 280.52 486.221C280.598 485.85 280.656 485.469 280.695 485.078C280.695 484.922 280.646 484.668 280.549 484.316C280.451 483.945 280.412 483.545 280.432 483.115L280.666 473.535V467.969C280.666 467.051 280.666 466.064 280.666 465.01C280.666 463.936 280.666 462.822 280.666 461.67C280.686 460.518 280.705 459.336 280.725 458.125C280.744 456.895 280.773 455.664 280.812 454.434C280.832 454.023 280.93 453.623 281.105 453.232C281.281 452.842 281.486 452.49 281.721 452.178C281.975 451.846 282.258 451.572 282.57 451.357C282.883 451.123 283.205 450.957 283.537 450.859C285.568 450.352 287.619 449.961 289.689 449.688C291.76 449.395 293.732 449.248 295.607 449.248C296.447 449.248 297.365 449.385 298.361 449.658C299.357 449.912 300.285 450.293 301.145 450.801C302.004 451.309 302.717 451.943 303.283 452.705C303.869 453.447 304.162 454.297 304.162 455.254C304.162 455.938 304.045 456.572 303.811 457.158C303.576 457.744 303.273 458.291 302.902 458.799C302.551 459.287 302.15 459.736 301.701 460.146C301.271 460.537 300.852 460.889 300.441 461.201C302.102 461.592 303.615 462.158 304.982 462.9C306.369 463.643 307.551 464.57 308.527 465.684C309.523 466.777 310.285 468.057 310.812 469.521C311.359 470.986 311.633 472.637 311.633 474.473C311.633 477.148 311.174 479.375 310.256 481.152C309.357 482.93 308.146 484.385 306.623 485.518C305.1 486.631 303.342 487.48 301.35 488.066C299.357 488.633 297.268 489.043 295.08 489.297C294.26 489.395 293.557 489.482 292.971 489.561C292.385 489.619 291.857 489.678 291.389 489.736C290.939 489.775 290.52 489.805 290.129 489.824C289.758 489.844 289.367 489.854 288.957 489.854C288.742 489.854 288.508 489.834 288.254 489.795C288 489.756 287.756 489.736 287.521 489.736C287.287 489.736 287.092 489.775 286.936 489.854C286.799 489.932 286.652 490.01 286.496 490.088C286.359 490.186 286.174 490.264 285.939 490.322C285.725 490.4 285.412 490.439 285.002 490.439C284.592 490.439 284.123 490.371 283.596 490.234C283.068 490.117 282.561 489.941 282.072 489.707C281.604 489.453 281.203 489.141 280.871 488.77C280.559 488.379 280.402 487.93 280.402 487.422ZM285.705 462.109C286.291 461.973 286.848 461.758 287.375 461.465C287.902 461.152 288.479 460.908 289.104 460.732C289.338 460.693 289.631 460.654 289.982 460.615C290.354 460.557 290.744 460.508 291.154 460.469C291.584 460.41 292.014 460.361 292.443 460.322C292.893 460.264 293.322 460.215 293.732 460.176C294.084 459.961 294.543 459.736 295.109 459.502C295.695 459.248 296.262 458.965 296.809 458.652C297.355 458.34 297.824 457.979 298.215 457.568C298.605 457.158 298.801 456.68 298.801 456.133C298.801 455.605 298.322 455.156 297.365 454.785C296.428 454.414 295.129 454.229 293.469 454.229C293.195 454.229 292.814 454.248 292.326 454.287C291.857 454.307 291.34 454.365 290.773 454.463C290.207 454.541 289.631 454.648 289.045 454.785C288.459 454.902 287.932 455.068 287.463 455.283C286.994 455.479 286.604 455.713 286.291 455.986C285.979 456.24 285.822 456.543 285.822 456.895L285.705 462.109ZM286.232 483.936C286.232 483.955 286.398 483.984 286.73 484.023C287.082 484.043 287.482 484.072 287.932 484.111C288.381 484.131 288.82 484.15 289.25 484.17C289.699 484.189 290.021 484.199 290.217 484.199C291.447 484.199 292.697 484.15 293.967 484.053C295.256 483.955 296.496 483.77 297.688 483.496C298.898 483.223 300.031 482.852 301.086 482.383C302.141 481.895 303.059 481.279 303.84 480.537C304.621 479.775 305.236 478.857 305.686 477.783C306.154 476.689 306.389 475.41 306.389 473.945C306.389 472.52 306.037 471.26 305.334 470.166C304.65 469.053 303.762 468.115 302.668 467.354C301.574 466.592 300.354 466.016 299.006 465.625C297.678 465.234 296.359 465.039 295.051 465.039C294.328 465.039 293.664 465.176 293.059 465.449C292.473 465.703 291.916 465.986 291.389 466.299C290.861 466.592 290.344 466.875 289.836 467.148C289.348 467.402 288.85 467.529 288.342 467.529C288.088 467.529 287.814 467.51 287.521 467.471C287.248 467.412 287.023 467.383 286.848 467.383C286.711 467.383 286.555 467.441 286.379 467.559C286.203 467.676 286.037 467.832 285.881 468.027C285.881 468.477 285.861 468.965 285.822 469.492C285.803 470 285.793 470.479 285.793 470.928C285.793 472.705 285.871 474.502 286.027 476.318C286.203 478.115 286.291 479.932 286.291 481.768C286.291 482.119 286.281 482.48 286.262 482.852C286.262 483.203 286.252 483.564 286.232 483.936Z" fill="#FEF8F8"/>
<g filter="url(#filter0_i)">
<path d="M0 0H410V429C134.5 274.5 244 465.5 0 429V0Z" fill="#0077B6"/>
</g>
<path d="M89.2064 199V188.704L79.4144 173.8H82.6544L90.6824 186.292L98.7464 173.8H101.806L91.9784 188.776V199H89.2064ZM127.36 186.4C127.36 188.2 127.036 189.904 126.388 191.512C125.74 193.096 124.852 194.476 123.724 195.652C122.596 196.804 121.264 197.716 119.728 198.388C118.216 199.06 116.584 199.396 114.832 199.396C113.104 199.396 111.472 199.06 109.936 198.388C108.4 197.716 107.068 196.804 105.94 195.652C104.812 194.476 103.924 193.096 103.276 191.512C102.628 189.904 102.304 188.2 102.304 186.4C102.304 184.6 102.628 182.908 103.276 181.324C103.924 179.716 104.812 178.336 105.94 177.184C107.068 176.008 108.4 175.084 109.936 174.412C111.472 173.74 113.104 173.404 114.832 173.404C116.584 173.404 118.216 173.74 119.728 174.412C121.264 175.084 122.596 176.008 123.724 177.184C124.852 178.336 125.74 179.716 126.388 181.324C127.036 182.908 127.36 184.6 127.36 186.4ZM124.552 186.4C124.552 184.936 124.3 183.568 123.796 182.296C123.292 181 122.608 179.884 121.744 178.948C120.88 178.012 119.848 177.28 118.648 176.752C117.472 176.2 116.2 175.924 114.832 175.924C113.464 175.924 112.18 176.2 110.98 176.752C109.804 177.28 108.784 178.012 107.92 178.948C107.056 179.884 106.372 181 105.868 182.296C105.364 183.568 105.112 184.936 105.112 186.4C105.112 187.864 105.364 189.244 105.868 190.54C106.372 191.812 107.056 192.916 107.92 193.852C108.784 194.788 109.804 195.532 110.98 196.084C112.18 196.612 113.464 196.876 114.832 196.876C116.2 196.876 117.472 196.612 118.648 196.084C119.848 195.532 120.88 194.788 121.744 193.852C122.608 192.916 123.292 191.812 123.796 190.54C124.3 189.244 124.552 187.864 124.552 186.4ZM152.328 188.344C152.328 191.704 151.404 194.392 149.556 196.408C147.732 198.4 145.284 199.396 142.212 199.396C139.116 199.396 136.656 198.4 134.832 196.408C133.008 194.416 132.096 191.728 132.096 188.344V173.8H134.868V188.344C134.868 190.912 135.528 192.976 136.848 194.536C138.192 196.096 139.98 196.876 142.212 196.876C144.444 196.876 146.22 196.096 147.54 194.536C148.884 192.976 149.556 190.912 149.556 188.344V173.8H152.328V188.344ZM158.229 199V173.8H168.561C170.961 173.8 172.893 174.472 174.357 175.816C175.845 177.16 176.589 178.912 176.589 181.072C176.589 182.728 176.109 184.168 175.149 185.392C174.213 186.592 172.941 187.42 171.333 187.876L176.697 199H173.637L168.525 188.236H161.001V199H158.229ZM168.345 176.248H161.001V185.932H168.345C170.001 185.932 171.321 185.488 172.305 184.6C173.313 183.712 173.817 182.548 173.817 181.108C173.817 179.644 173.313 178.468 172.305 177.58C171.321 176.692 170.001 176.248 168.345 176.248ZM187.744 195.076L189.436 193.06C190.948 194.476 192.364 195.484 193.684 196.084C195.028 196.684 196.516 196.984 198.148 196.984C200.092 196.984 201.7 196.504 202.972 195.544C204.244 194.56 204.88 193.348 204.88 191.908C204.88 190.66 204.448 189.7 203.584 189.028C202.744 188.356 201.304 187.84 199.264 187.48L195.196 186.796C192.892 186.388 191.2 185.692 190.12 184.708C189.064 183.7 188.536 182.356 188.536 180.676C188.536 178.564 189.34 176.836 190.948 175.492C192.556 174.148 194.632 173.476 197.176 173.476C199.048 173.476 200.788 173.74 202.396 174.268C204.004 174.772 205.588 175.576 207.148 176.68L205.708 178.84C204.412 177.88 203.032 177.136 201.568 176.608C200.128 176.08 198.676 175.816 197.212 175.816C195.46 175.816 194.02 176.26 192.892 177.148C191.764 178.012 191.2 179.092 191.2 180.388C191.2 181.492 191.572 182.356 192.316 182.98C193.06 183.604 194.272 184.048 195.952 184.312L199.984 184.996C202.648 185.476 204.592 186.256 205.816 187.336C207.04 188.416 207.652 189.892 207.652 191.764C207.652 192.844 207.412 193.852 206.932 194.788C206.452 195.724 205.78 196.528 204.916 197.2C204.076 197.872 203.068 198.4 201.892 198.784C200.716 199.168 199.444 199.36 198.076 199.36C196.108 199.36 194.272 199.012 192.568 198.316C190.888 197.596 189.28 196.516 187.744 195.076ZM209.647 176.248V173.8H229.807V176.248H221.131V199H218.359V176.248H209.647ZM234.061 199V173.8H251.269V176.212H236.833V185.068H246.841V187.48H236.833V196.588H251.413V199H234.061ZM256.35 199V173.8H266.754C269.178 173.8 271.122 174.484 272.586 175.852C274.05 177.22 274.782 179.02 274.782 181.252C274.782 183.484 274.05 185.284 272.586 186.652C271.122 188.02 269.178 188.704 266.754 188.704H259.122V199H256.35ZM266.43 176.248H259.122V186.328H266.43C268.158 186.328 269.514 185.872 270.498 184.96C271.506 184.048 272.01 182.812 272.01 181.252C272.01 179.716 271.506 178.504 270.498 177.616C269.514 176.704 268.158 176.248 266.43 176.248ZM288.308 173.8H298.496C300.8 173.8 302.636 174.388 304.004 175.564C305.396 176.716 306.092 178.264 306.092 180.208C306.092 181.576 305.684 182.764 304.868 183.772C304.076 184.78 302.996 185.488 301.628 185.896C303.284 186.28 304.604 187.012 305.588 188.092C306.572 189.172 307.064 190.48 307.064 192.016C307.064 194.104 306.308 195.796 304.796 197.092C303.308 198.364 301.34 199 298.892 199H288.308V173.8ZM298.28 176.176H291.08V184.816H298.28C299.792 184.816 301.004 184.42 301.916 183.628C302.852 182.836 303.32 181.792 303.32 180.496C303.32 179.2 302.852 178.156 301.916 177.364C301.004 176.572 299.792 176.176 298.28 176.176ZM298.604 196.624C300.308 196.624 301.676 196.192 302.708 195.328C303.74 194.44 304.256 193.276 304.256 191.836C304.256 190.396 303.74 189.244 302.708 188.38C301.7 187.516 300.332 187.084 298.604 187.084H291.08V196.624H298.604ZM317.968 199V188.704L308.176 173.8H311.416L319.444 186.292L327.508 173.8H330.568L320.74 188.776V199H317.968ZM80.2365 243.076L81.9285 241.06C83.4405 242.476 84.8565 243.484 86.1765 244.084C87.5205 244.684 89.0085 244.984 90.6405 244.984C92.5845 244.984 94.1925 244.504 95.4645 243.544C96.7365 242.56 97.3725 241.348 97.3725 239.908C97.3725 238.66 96.9405 237.7 96.0765 237.028C95.2365 236.356 93.7965 235.84 91.7565 235.48L87.6885 234.796C85.3845 234.388 83.6925 233.692 82.6125 232.708C81.5565 231.7 81.0285 230.356 81.0285 228.676C81.0285 226.564 81.8325 224.836 83.4405 223.492C85.0485 222.148 87.1245 221.476 89.6685 221.476C91.5405 221.476 93.2805 221.74 94.8885 222.268C96.4965 222.772 98.0805 223.576 99.6405 224.68L98.2005 226.84C96.9045 225.88 95.5245 225.136 94.0605 224.608C92.6205 224.08 91.1685 223.816 89.7045 223.816C87.9525 223.816 86.5125 224.26 85.3845 225.148C84.2565 226.012 83.6925 227.092 83.6925 228.388C83.6925 229.492 84.0645 230.356 84.8085 230.98C85.5525 231.604 86.7645 232.048 88.4445 232.312L92.4765 232.996C95.1405 233.476 97.0845 234.256 98.3085 235.336C99.5325 236.416 100.145 237.892 100.145 239.764C100.145 240.844 99.9045 241.852 99.4245 242.788C98.9445 243.724 98.2725 244.528 97.4085 245.2C96.5685 245.872 95.5605 246.4 94.3845 246.784C93.2085 247.168 91.9365 247.36 90.5685 247.36C88.6005 247.36 86.7645 247.012 85.0605 246.316C83.3805 245.596 81.7725 244.516 80.2365 243.076ZM102.139 224.248V221.8H122.299V224.248H113.623V247H110.851V224.248H102.139ZM126.554 247V221.8H143.762V224.212H129.326V233.068H139.334V235.48H129.326V244.588H143.906V247H126.554ZM148.843 247V221.8H159.247C161.671 221.8 163.615 222.484 165.079 223.852C166.543 225.22 167.275 227.02 167.275 229.252C167.275 231.484 166.543 233.284 165.079 234.652C163.615 236.02 161.671 236.704 159.247 236.704H151.615V247H148.843ZM158.923 224.248H151.615V234.328H158.923C160.651 234.328 162.007 233.872 162.991 232.96C163.999 232.048 164.503 230.812 164.503 229.252C164.503 227.716 163.999 226.504 162.991 225.616C162.007 224.704 160.651 224.248 158.923 224.248ZM180.8 247V221.8H191.204C193.628 221.8 195.572 222.484 197.036 223.852C198.5 225.22 199.232 227.02 199.232 229.252C199.232 231.484 198.5 233.284 197.036 234.652C195.572 236.02 193.628 236.704 191.204 236.704H183.572V247H180.8ZM190.88 224.248H183.572V234.328H190.88C192.608 234.328 193.964 233.872 194.948 232.96C195.956 232.048 196.46 230.812 196.46 229.252C196.46 227.716 195.956 226.504 194.948 225.616C193.964 224.704 192.608 224.248 190.88 224.248ZM204.318 247V221.8H207.09V233.068H221.562V221.8H224.334V247H221.562V235.552H207.09V247H204.318ZM237.706 247V236.704L227.914 221.8H231.154L239.182 234.292L247.246 221.8H250.306L240.478 236.776V247H237.706ZM251.377 243.076L253.069 241.06C254.581 242.476 255.997 243.484 257.317 244.084C258.661 244.684 260.149 244.984 261.781 244.984C263.725 244.984 265.333 244.504 266.605 243.544C267.877 242.56 268.513 241.348 268.513 239.908C268.513 238.66 268.081 237.7 267.217 237.028C266.377 236.356 264.937 235.84 262.897 235.48L258.829 234.796C256.525 234.388 254.833 233.692 253.753 232.708C252.697 231.7 252.169 230.356 252.169 228.676C252.169 226.564 252.973 224.836 254.581 223.492C256.189 222.148 258.265 221.476 260.809 221.476C262.681 221.476 264.421 221.74 266.029 222.268C267.637 222.772 269.221 223.576 270.781 224.68L269.341 226.84C268.045 225.88 266.665 225.136 265.201 224.608C263.761 224.08 262.309 223.816 260.845 223.816C259.093 223.816 257.653 224.26 256.525 225.148C255.397 226.012 254.833 227.092 254.833 228.388C254.833 229.492 255.205 230.356 255.949 230.98C256.693 231.604 257.905 232.048 259.585 232.312L263.617 232.996C266.281 233.476 268.225 234.256 269.449 235.336C270.673 236.416 271.285 237.892 271.285 239.764C271.285 240.844 271.045 241.852 270.565 242.788C270.085 243.724 269.413 244.528 268.549 245.2C267.709 245.872 266.701 246.4 265.525 246.784C264.349 247.168 263.077 247.36 261.709 247.36C259.741 247.36 257.905 247.012 256.201 246.316C254.521 245.596 252.913 244.516 251.377 243.076ZM275.931 247V221.8H278.703V247H275.931ZM296.773 244.876C298.213 244.876 299.605 244.576 300.949 243.976C302.293 243.376 303.421 242.524 304.333 241.42L306.133 243.256C304.909 244.576 303.481 245.596 301.849 246.316C300.217 247.036 298.501 247.396 296.701 247.396C294.901 247.396 293.209 247.06 291.625 246.388C290.065 245.692 288.709 244.768 287.557 243.616C286.429 242.44 285.529 241.06 284.857 239.476C284.209 237.892 283.885 236.2 283.885 234.4C283.885 232.6 284.209 230.908 284.857 229.324C285.529 227.716 286.441 226.336 287.593 225.184C288.745 224.008 290.101 223.084 291.661 222.412C293.221 221.74 294.901 221.404 296.701 221.404C298.549 221.404 300.301 221.764 301.957 222.484C303.613 223.204 305.029 224.224 306.205 225.544L304.369 227.452C303.433 226.348 302.281 225.484 300.913 224.86C299.545 224.236 298.141 223.924 296.701 223.924C295.285 223.924 293.965 224.2 292.741 224.752C291.517 225.28 290.461 226.012 289.573 226.948C288.685 227.884 287.977 229 287.449 230.296C286.945 231.568 286.693 232.936 286.693 234.4C286.693 235.864 286.945 237.244 287.449 238.54C287.977 239.812 288.685 240.916 289.573 241.852C290.461 242.788 291.517 243.532 292.741 244.084C293.989 244.612 295.333 244.876 296.773 244.876ZM309.35 243.076L311.042 241.06C312.554 242.476 313.97 243.484 315.29 244.084C316.634 244.684 318.122 244.984 319.754 244.984C321.698 244.984 323.306 244.504 324.578 243.544C325.85 242.56 326.486 241.348 326.486 239.908C326.486 238.66 326.054 237.7 325.19 237.028C324.35 236.356 322.91 235.84 320.87 235.48L316.802 234.796C314.498 234.388 312.806 233.692 311.726 232.708C310.67 231.7 310.142 230.356 310.142 228.676C310.142 226.564 310.946 224.836 312.554 223.492C314.162 222.148 316.238 221.476 318.782 221.476C320.654 221.476 322.394 221.74 324.002 222.268C325.61 222.772 327.194 223.576 328.754 224.68L327.314 226.84C326.018 225.88 324.638 225.136 323.174 224.608C321.734 224.08 320.282 223.816 318.818 223.816C317.066 223.816 315.626 224.26 314.498 225.148C313.37 226.012 312.806 227.092 312.806 228.388C312.806 229.492 313.178 230.356 313.922 230.98C314.666 231.604 315.878 232.048 317.558 232.312L321.59 232.996C324.254 233.476 326.198 234.256 327.422 235.336C328.646 236.416 329.258 237.892 329.258 239.764C329.258 240.844 329.018 241.852 328.538 242.788C328.058 243.724 327.386 244.528 326.522 245.2C325.682 245.872 324.674 246.4 323.498 246.784C322.322 247.168 321.05 247.36 319.682 247.36C317.714 247.36 315.878 247.012 314.174 246.316C312.494 245.596 310.886 244.516 309.35 243.076ZM175.815 282.94C175.815 284.668 175.503 286.3 174.879 287.836C174.279 289.348 173.439 290.668 172.359 291.796C171.303 292.9 170.043 293.776 168.579 294.424C167.115 295.072 165.531 295.396 163.827 295.396C162.051 295.396 160.383 295.06 158.823 294.388C157.263 293.692 155.907 292.768 154.755 291.616C153.603 290.44 152.691 289.06 152.019 287.476C151.371 285.892 151.047 284.2 151.047 282.4C151.047 280.6 151.371 278.908 152.019 277.324C152.691 275.74 153.591 274.372 154.719 273.22C155.871 272.044 157.227 271.12 158.787 270.448C160.347 269.752 162.015 269.404 163.791 269.404C165.687 269.404 167.499 269.752 169.227 270.448C170.955 271.144 172.419 272.176 173.619 273.544L171.747 275.416C170.811 274.312 169.623 273.46 168.183 272.86C166.767 272.236 165.303 271.924 163.791 271.924C162.375 271.924 161.055 272.2 159.831 272.752C158.631 273.28 157.587 274.012 156.699 274.948C155.811 275.884 155.115 277 154.611 278.296C154.107 279.568 153.855 280.936 153.855 282.4C153.855 283.864 154.107 285.244 154.611 286.54C155.139 287.812 155.835 288.928 156.699 289.888C157.587 290.824 158.643 291.568 159.867 292.12C161.091 292.648 162.399 292.912 163.791 292.912C165.039 292.912 166.203 292.696 167.283 292.264C168.363 291.808 169.299 291.196 170.091 290.428C170.907 289.66 171.567 288.748 172.071 287.692C172.599 286.636 172.911 285.496 173.007 284.272H164.511V281.824H175.815V282.94ZM200.721 284.344C200.721 287.704 199.797 290.392 197.949 292.408C196.125 294.4 193.677 295.396 190.605 295.396C187.509 295.396 185.049 294.4 183.225 292.408C181.401 290.416 180.489 287.728 180.489 284.344V269.8H183.261V284.344C183.261 286.912 183.921 288.976 185.241 290.536C186.585 292.096 188.373 292.876 190.605 292.876C192.837 292.876 194.613 292.096 195.933 290.536C197.277 288.976 197.949 286.912 197.949 284.344V269.8H200.721V284.344ZM206.55 295V269.8H209.322V295H206.55ZM215.692 295V269.8H224.044C225.892 269.8 227.584 270.124 229.12 270.772C230.68 271.42 232.012 272.308 233.116 273.436C234.22 274.54 235.084 275.872 235.708 277.432C236.332 278.968 236.644 280.624 236.644 282.4C236.644 284.176 236.332 285.844 235.708 287.404C235.108 288.94 234.256 290.272 233.152 291.4C232.048 292.504 230.716 293.38 229.156 294.028C227.596 294.676 225.892 295 224.044 295H215.692ZM224.224 272.284H218.464V292.516H224.224C225.568 292.516 226.828 292.264 228.004 291.76C229.18 291.232 230.2 290.524 231.064 289.636C231.928 288.724 232.6 287.656 233.08 286.432C233.584 285.184 233.836 283.84 233.836 282.4C233.836 280.96 233.584 279.628 233.08 278.404C232.6 277.156 231.928 276.088 231.064 275.2C230.2 274.288 229.18 273.58 228.004 273.076C226.828 272.548 225.568 272.284 224.224 272.284ZM241.884 295V269.8H259.092V272.212H244.656V281.068H254.664V283.48H244.656V292.588H259.236V295H241.884Z" fill="white"/>
</g>
<defs>
<filter id="filter0_i" x="0" y="0" width="410" height="437.745" filterUnits="userSpaceOnUse" color-interpolation-filters="sRGB">
<feFlood flood-opacity="0" result="BackgroundImageFix"/>
<feBlend mode="normal" in="SourceGraphic" in2="BackgroundImageFix" result="shape"/>
<feColorMatrix in="SourceAlpha" type="matrix" values="0 0 0 0 0 0 0 0 0 0 0 0 0 0 0 0 0 0 127 0" result="hardAlpha"/>
<feOffset dy="4"/>
<feGaussianBlur stdDeviation="2"/>
<feComposite in2="hardAlpha" operator="arithmetic" k2="-1" k3="1"/>
<feColorMatrix type="matrix" values="0 0 0 0 0 0 0 0 0 0 0 0 0 0 0 0 0 0 0.25 0"/>
<feBlend mode="normal" in2="shape" result="effect1_innerShadow"/>
</filter>
<clipPath id="clip0">
<rect width="410" height="882" fill="white"/>
</clipPath>
</defs>
</svg>
