<svg width="410" height="882" viewBox="0 0 410 882" fill="none" xmlns="http://www.w3.org/2000/svg">
<g clip-path="url(#clip0)">
<rect width="410" height="882" fill="white"/>
<rect x="-1" width="412" height="882" fill="#C4C4C4"/>
<ellipse cx="207" cy="549.5" rx="126" ry="65.5" fill="#3075DD"/>
<ellipse cx="207" cy="549.5" rx="126" ry="65.5" fill="#0077B6"/>
<ellipse cx="207" cy="671.5" rx="99" ry="47.5" fill="#0077B6" fill-opacity="0.67"/>
<ellipse cx="206.5" cy="768" rx="83.5" ry="40" fill="#0077B6" fill-opacity="0.37"/>
<path d="M189.275 660.92H196.275V685H189.275V660.92ZM197.745 679.645H199.18C199.833 679.645 200.323 679.633 200.65 679.61C201 679.563 201.257 679.47 201.42 679.33C201.583 679.19 201.688 678.992 201.735 678.735C201.805 678.478 201.84 678.105 201.84 677.615C201.84 677.102 201.805 676.717 201.735 676.46C201.688 676.203 201.583 676.005 201.42 675.865C201.14 675.632 200.393 675.515 199.18 675.515H197.745V670.16H198.97C199.623 670.16 200.113 670.148 200.44 670.125C200.79 670.078 201.047 669.985 201.21 669.845C201.373 669.705 201.478 669.518 201.525 669.285C201.595 669.028 201.63 668.678 201.63 668.235C201.63 667.768 201.595 667.418 201.525 667.185C201.478 666.928 201.373 666.73 201.21 666.59C201.047 666.45 200.79 666.368 200.44 666.345C200.113 666.298 199.623 666.275 198.97 666.275H197.745V660.92H201.735C206.425 660.92 208.77 662.938 208.77 666.975C208.77 668.678 208.432 669.962 207.755 670.825C207.102 671.688 206.052 672.295 204.605 672.645V672.785C206.122 673.135 207.207 673.683 207.86 674.43C208.607 675.317 208.98 676.693 208.98 678.56C208.98 680.707 208.408 682.317 207.265 683.39C206.122 684.463 204.29 685 201.77 685H197.745V679.645ZM217.495 677.055L217.18 676.355L216.27 674.57L215.395 672.715C215.301 672.552 215.185 672.307 215.045 671.98L213.61 669.005L209.76 660.92H216.9L224.495 677.09V685H217.495V677.055ZM222.01 668.375L225.265 660.92H232.265L229.535 666.59L228.38 668.97L226.175 673.555L225.3 675.375L222.01 668.375Z" fill="#FEF8F8"/>
<path d="M179.865 759.45C179.095 759.357 177.742 759.228 175.805 759.065C174.732 759.018 173.868 758.995 173.215 758.995C172.375 758.995 171.582 759.018 170.835 759.065V753.64H171.71C173.623 753.64 175.607 753.768 177.66 754.025C178.313 754.118 179.048 754.247 179.865 754.41V759.45ZM174.09 770.895C174.09 770.405 174.055 770.055 173.985 769.845C173.915 769.612 173.798 769.46 173.635 769.39C173.472 769.297 173.192 769.227 172.795 769.18L168.49 768.655C165.947 768.375 164.232 767.547 163.345 766.17C162.948 765.587 162.68 764.875 162.54 764.035C162.4 763.195 162.33 762.168 162.33 760.955C162.33 758.365 162.995 756.498 164.325 755.355C165.398 754.422 167.078 753.873 169.365 753.71V760.745C169.365 761.048 169.377 761.305 169.4 761.515C169.423 761.725 169.47 761.888 169.54 762.005C169.61 762.145 169.727 762.25 169.89 762.32C170.053 762.367 170.298 762.402 170.625 762.425L175.455 763.02C176.458 763.16 177.275 763.335 177.905 763.545C178.535 763.755 179.072 764.082 179.515 764.525C180.565 765.622 181.09 767.57 181.09 770.37C181.09 773.333 180.437 775.41 179.13 776.6C178.547 777.137 177.835 777.533 176.995 777.79C176.178 778.023 175.21 778.175 174.09 778.245V770.895ZM172.235 778.28C169.902 778.28 167.732 778.175 165.725 777.965C164.535 777.848 163.637 777.732 163.03 777.615V772.505C164.407 772.622 165.982 772.738 167.755 772.855C168.875 772.902 169.668 772.925 170.135 772.925C171.395 772.925 172.223 772.89 172.62 772.82V778.28H172.235ZM182.746 753.92H202.451V759.52H182.746V753.92ZM189.081 760.92H196.081V778H189.081V760.92ZM205.043 753.92H212.043V778H205.043V753.92ZM213.513 753.92H222.403V759.275H213.513V753.92ZM213.513 763.16H220.758V768.515H213.513V763.16ZM213.513 772.645H222.403V778H213.513V772.645ZM226.61 753.92H233.61V778H226.61V753.92ZM235.08 765.155H235.92C236.667 765.155 237.215 765.132 237.565 765.085C237.938 765.015 238.23 764.875 238.44 764.665C238.65 764.478 238.778 764.21 238.825 763.86C238.895 763.487 238.93 762.938 238.93 762.215C238.93 761.492 238.895 760.955 238.825 760.605C238.778 760.232 238.65 759.94 238.44 759.73C238.23 759.543 237.938 759.427 237.565 759.38C237.192 759.31 236.643 759.275 235.92 759.275H235.08V753.92H237.985C239.712 753.92 241.112 754.095 242.185 754.445C243.282 754.772 244.11 755.285 244.67 755.985C245.207 756.638 245.568 757.467 245.755 758.47C245.942 759.45 246.035 760.698 246.035 762.215C246.035 763.662 245.942 764.863 245.755 765.82C245.592 766.777 245.253 767.582 244.74 768.235C244.157 768.982 243.317 769.553 242.22 769.95C241.147 770.323 239.735 770.51 237.985 770.51H235.08V765.155Z" fill="#FEF8F8"/>
<path d="M187.865 539.45C187.095 539.357 185.742 539.228 183.805 539.065C182.732 539.018 181.868 538.995 181.215 538.995C180.375 538.995 179.582 539.018 178.835 539.065V533.64H179.71C181.623 533.64 183.607 533.768 185.66 534.025C186.313 534.118 187.048 534.247 187.865 534.41V539.45ZM182.09 550.895C182.09 550.405 182.055 550.055 181.985 549.845C181.915 549.612 181.798 549.46 181.635 549.39C181.472 549.297 181.192 549.227 180.795 549.18L176.49 548.655C173.947 548.375 172.232 547.547 171.345 546.17C170.948 545.587 170.68 544.875 170.54 544.035C170.4 543.195 170.33 542.168 170.33 540.955C170.33 538.365 170.995 536.498 172.325 535.355C173.398 534.422 175.078 533.873 177.365 533.71V540.745C177.365 541.048 177.377 541.305 177.4 541.515C177.423 541.725 177.47 541.888 177.54 542.005C177.61 542.145 177.727 542.25 177.89 542.32C178.053 542.367 178.298 542.402 178.625 542.425L183.455 543.02C184.458 543.16 185.275 543.335 185.905 543.545C186.535 543.755 187.072 544.082 187.515 544.525C188.565 545.622 189.09 547.57 189.09 550.37C189.09 553.333 188.437 555.41 187.13 556.6C186.547 557.137 185.835 557.533 184.995 557.79C184.178 558.023 183.21 558.175 182.09 558.245V550.895ZM180.235 558.28C177.902 558.28 175.732 558.175 173.725 557.965C172.535 557.848 171.637 557.732 171.03 557.615V552.505C172.407 552.622 173.982 552.738 175.755 552.855C176.875 552.902 177.668 552.925 178.135 552.925C179.395 552.925 180.223 552.89 180.62 552.82V558.28H180.235ZM190.746 533.92H210.451V539.52H190.746V533.92ZM197.081 540.92H204.081V558H197.081V540.92ZM213.043 533.92H220.043V558H213.043V533.92ZM221.513 533.92H230.403V539.275H221.513V533.92ZM221.513 543.16H228.758V548.515H221.513V543.16ZM221.513 552.645H230.403V558H221.513V552.645ZM234.61 533.92H241.61V558H234.61V533.92ZM243.08 545.155H243.92C244.667 545.155 245.215 545.132 245.565 545.085C245.938 545.015 246.23 544.875 246.44 544.665C246.65 544.478 246.778 544.21 246.825 543.86C246.895 543.487 246.93 542.938 246.93 542.215C246.93 541.492 246.895 540.955 246.825 540.605C246.778 540.232 246.65 539.94 246.44 539.73C246.23 539.543 245.938 539.427 245.565 539.38C245.192 539.31 244.643 539.275 243.92 539.275H243.08V533.92H245.985C247.712 533.92 249.112 534.095 250.185 534.445C251.282 534.772 252.11 535.285 252.67 535.985C253.207 536.638 253.568 537.467 253.755 538.47C253.942 539.45 254.035 540.698 254.035 542.215C254.035 543.662 253.942 544.863 253.755 545.82C253.592 546.777 253.253 547.582 252.74 548.235C252.157 548.982 251.317 549.553 250.22 549.95C249.147 550.323 247.735 550.51 245.985 550.51H243.08V545.155Z" fill="#FEF8F8"/>
<g filter="url(#filter0_i)">
<path d="M0 0H410V588C203 318.5 225 321 0 588V0Z" fill="#0077B6"/>
</g>
</g>
<defs>
<filter id="filter0_i" x="0" y="0" width="410" height="592" filterUnits="userSpaceOnUse" color-interpolation-filters="sRGB">
<feFlood flood-opacity="0" result="BackgroundImageFix"/>
<feBlend mode="normal" in="SourceGraphic" in2="BackgroundImageFix" result="shape"/>
<feColorMatrix in="SourceAlpha" type="matrix" values="0 0 0 0 0 0 0 0 0 0 0 0 0 0 0 0 0 0 127 0" result="hardAlpha"/>
<feOffset dy="4"/>
<feGaussianBlur stdDeviation="2"/>
<feComposite in2="hardAlpha" operator="arithmetic" k2="-1" k3="1"/>
<feColorMatrix type="matrix" values="0 0 0 0 0 0 0 0 0 0 0 0 0 0 0 0 0 0 0.25 0"/>
<feBlend mode="normal" in2="shape" result="effect1_innerShadow"/>
</filter>
<clipPath id="clip0">
<rect width="410" height="882" fill="white"/>
</clipPath>
</defs>
</svg>
